<svg width="312" height="217" viewBox="0 0 312 217" fill="none" xmlns="http://www.w3.org/2000/svg">
    <path d="M81.3379 85.7619C59.7327 90.0922 21.9997 107.563 6.64108 127.567M101.818 112.856C90.7107 114.742 58.9392 124.484 35.5721 144.483M103.715 153.451C84.2497 157.902 50.4075 169.964 26.4748 190.933" stroke="#FCAC12" stroke-width="6" stroke-linecap="round" stroke-linejoin="round"/>
    <g style="mix-blend-mode:overlay">
        <path d="M81.3379 85.7619C59.7327 90.0922 21.9997 107.563 6.64108 127.567M101.818 112.856C90.7107 114.742 58.9392 124.484 35.5721 144.483M103.715 153.451C84.2497 157.902 50.4075 169.964 26.4748 190.933" stroke="url(#paint0_linear_3426_4288)" stroke-opacity="0.32" stroke-width="6" stroke-linecap="round" stroke-linejoin="round"/>
    </g>
    <path d="M118.647 168.495C118.802 132.14 112.149 89.3188 105.52 68.3035C104.277 64.3634 105.801 59.9402 109.495 58.0893C174.297 25.6122 251.986 29.161 286.135 38.439C288.789 39.1602 290.772 41.2968 291.395 43.9762C297.559 70.4647 298.454 98.3823 296.819 138.13C296.655 142.116 293.551 145.364 289.58 145.746C219.446 152.504 195.591 158.845 128.971 176.589C123.744 177.981 118.624 173.905 118.647 168.495Z" fill="#EEE5FF"/>
    <g style="mix-blend-mode:soft-light">
        <path d="M118.647 168.495C118.802 132.14 112.149 89.3188 105.52 68.3035C104.277 64.3634 105.801 59.9402 109.495 58.0893C174.297 25.6122 251.986 29.161 286.135 38.439C288.789 39.1602 290.772 41.2968 291.395 43.9762C297.559 70.4647 298.454 98.3823 296.819 138.13C296.655 142.116 293.551 145.364 289.58 145.746C219.446 152.504 195.591 158.845 128.971 176.589C123.744 177.981 118.624 173.905 118.647 168.495Z" fill="url(#paint1_linear_3426_4288)"/>
    </g>
    <path fill-rule="evenodd" clip-rule="evenodd" d="M166.593 93.9123C180.1 99.2604 192.999 104.368 205.888 108.216C216.564 111.404 260.923 79.5614 290.305 44.9974C291.162 43.9886 291.429 42.5896 290.995 41.339C290.607 40.2206 289.742 39.3927 288.608 39.0545C255.855 29.2915 175.9 24.7771 109.464 58.0819C105.771 59.9334 104.266 64.3626 105.682 68.2429C105.822 68.6274 105.964 69.0187 106.105 69.4165C107.02 71.9821 109.122 73.9533 111.75 74.6695C131.773 80.1258 149.661 87.2084 166.593 93.9123Z" fill="#8F57FF"/>
    <g style="mix-blend-mode:overlay" opacity="0.24">
        <path fill-rule="evenodd" clip-rule="evenodd" d="M166.593 93.9123C180.1 99.2604 192.999 104.368 205.888 108.216C216.564 111.404 260.923 79.5614 290.305 44.9974C291.162 43.9886 291.429 42.5896 290.995 41.339C290.607 40.2206 289.742 39.3927 288.608 39.0545C255.855 29.2915 175.9 24.7771 109.464 58.0819C105.771 59.9334 104.266 64.3626 105.682 68.2429C105.822 68.6274 105.964 69.0187 106.105 69.4165C107.02 71.9821 109.122 73.9533 111.75 74.6695C131.773 80.1258 149.661 87.2084 166.593 93.9123Z" fill="url(#paint2_linear_3426_4288)"/>
    </g>
    <defs>
        <linearGradient id="paint0_linear_3426_4288" x1="107.966" y1="90.6565" x2="-3.8334" y2="176.177" gradientUnits="userSpaceOnUse">
            <stop stop-opacity="0.106061"/>
            <stop offset="1"/>
        </linearGradient>
        <linearGradient id="paint1_linear_3426_4288" x1="240.96" y1="8.40553" x2="115.82" y2="268.885" gradientUnits="userSpaceOnUse">
            <stop offset="0.169958" stop-color="white"/>
            <stop offset="1" stop-color="white" stop-opacity="0"/>
        </linearGradient>
        <linearGradient id="paint2_linear_3426_4288" x1="228.989" y1="8.84864" x2="195.756" y2="107.926" gradientUnits="userSpaceOnUse">
            <stop stop-color="white"/>
            <stop offset="1" stop-color="white" stop-opacity="0"/>
        </linearGradient>
    </defs>
</svg>
