<svg width="27" height="27" viewBox="0 0 27 27" fill="none" xmlns="http://www.w3.org/2000/svg">
<path d="M26.4073 10.722H25.3333V10.6667H13.3333V16H20.8687C19.7693 19.1047 16.8153 21.3333 13.3333 21.3333C8.91533 21.3333 5.33333 17.7513 5.33333 13.3333C5.33333 8.91533 8.91533 5.33333 13.3333 5.33333C15.3727 5.33333 17.228 6.10267 18.6407 7.35933L22.412 3.588C20.0307 1.36867 16.8453 0 13.3333 0C5.97 0 0 5.97 0 13.3333C0 20.6967 5.97 26.6667 13.3333 26.6667C20.6967 26.6667 26.6667 20.6967 26.6667 13.3333C26.6667 12.4393 26.5747 11.5667 26.4073 10.722Z" fill="#FFC107"/>
<path d="M1.53735 7.12733L5.91802 10.34C7.10335 7.40533 9.97402 5.33333 13.3334 5.33333C15.3727 5.33333 17.228 6.10267 18.6407 7.35933L22.412 3.588C20.0307 1.36867 16.8454 0 13.3334 0C8.21202 0 3.77069 2.89133 1.53735 7.12733Z" fill="#FF3D00"/>
<path d="M13.3334 26.6667C16.7774 26.6667 19.9067 25.3487 22.2727 23.2053L18.146 19.7133C16.7624 20.7656 15.0717 21.3347 13.3334 21.3333C9.86538 21.3333 6.92071 19.122 5.81138 16.036L1.46338 19.386C3.67005 23.704 8.15138 26.6667 13.3334 26.6667Z" fill="#4CAF50"/>
<path d="M26.4074 10.7221H25.3334V10.6667H13.3334V16.0001H20.8687C20.3428 17.4777 19.3956 18.7689 18.144 19.7141L18.146 19.7127L22.2727 23.2047C21.9807 23.4701 26.6667 20.0001 26.6667 13.3334C26.6667 12.4394 26.5747 11.5667 26.4074 10.7221Z" fill="#1976D2"/>
</svg>
